<svg xmlns="http://www.w3.org/2000/svg" width="512" height="512" viewBox="0 0 512 512" role="img" aria-label="Merge a Nuke Guide icon">
  <rect width="512" height="512" rx="112" fill="#171717" />
  <circle cx="256" cy="256" r="170" fill="#ffffff" opacity="0.08" />
  <defs>
      <g id="official-bomb">
        <path d="M -40,-20 A 40,40 0 0 1 40,-20 C 40,15 20,55 18,55 L 18,70 C 22,70 25,72 25,78 L 25,85 C 25,87 18,89 0,89 C -18,89 -25,87 -25,85 L -25,78 C -25,72 -22,70 -18,70 L -18,55 C -20,55 -40,15 -40,-20 Z" fill="#00d8ff" stroke="#171717" stroke-width="8" stroke-linejoin="round" />
        <path d="M -38,-5 C -20,5 20,5 38,-5" fill="none" stroke="#171717" stroke-width="7" />
        <path d="M -32,15 C -15,25 15,25 32,15" fill="none" stroke="#171717" stroke-width="7" />
        <path d="M -8,55 L -8,70 M 0,55 L 0,70 M 8,55 L 8,70" fill="none" stroke="#171717" stroke-width="5" />
      </g>
    </defs>
    <use href="#official-bomb" x="175" y="205" />
    <use href="#official-bomb" x="337" y="205" />
    <path d="M 244,195 L 268,195 M 256,183 L 256,207" fill="none" stroke="#171717" stroke-width="10" stroke-linecap="round" />
    <path d="M 244,195 L 268,195 M 256,183 L 256,207" fill="none" stroke="#ffffff" stroke-width="4" stroke-linecap="round" />
    <text x="175" y="135" text-anchor="middle" font-family="Arial, sans-serif" font-size="44" font-weight="900" fill="#ffffff" stroke="#171717" stroke-width="8" paint-order="stroke fill">1</text>
    <text x="337" y="135" text-anchor="middle" font-family="Arial, sans-serif" font-size="44" font-weight="900" fill="#ffffff" stroke="#171717" stroke-width="8" paint-order="stroke fill">1</text>
  <rect x="154" y="360" width="204" height="70" rx="35" fill="#171717" opacity="0.88" />
  <text x="256" y="410" text-anchor="middle" font-family="Arial, sans-serif" font-size="54" font-weight="800" fill="#ffffff">MN</text>
</svg>
