<svg xmlns="http://www.w3.org/2000/svg" width="512" height="512" viewBox="0 0 512 512" role="img" aria-label="Merge a Nuke Guide icon">
  <rect width="512" height="512" rx="112" fill="#171717" />
  <circle cx="256" cy="256" r="170" fill="#ffffff" opacity="0.08" />
  <circle cx="256" cy="220" r="120" fill="#facc15" /><path d="M 256,130 C 246,130 236,150 236,180 L 236,280 L 216,305 L 241,295 L 246,290 L 256,290 L 266,290 L 271,295 L 296,305 L 276,280 L 276,180 C 276,150 266,130 256,130 Z" fill="#171717" /><g transform="translate(256, 230) scale(0.12) rotate(90)" fill="#facc15"><circle cx="0" cy="0" r="30" /><path id="radiation-petal-small" d="M39,-22.5 L95.3,-55 A110,110 0 0 1 95.3,55 L39,22.5 A45,45 0 0 0 39,-22.5 Z" /><use href="#radiation-petal-small" transform="rotate(120)" /><use href="#radiation-petal-small" transform="rotate(240)" /></g>
  <rect x="154" y="360" width="204" height="70" rx="35" fill="#171717" opacity="0.88" />
  <text x="256" y="410" text-anchor="middle" font-family="Arial, sans-serif" font-size="54" font-weight="800" fill="#ffffff">MN</text>
</svg>
